<svg width="41" height="40" viewBox="0 0 41 40" fill="none" xmlns="http://www.w3.org/2000/svg">
<path d="M18.8333 28.3337L22.1666 31.667C22.4949 31.9953 22.8846 32.2557 23.3136 32.4334C23.7425 32.6111 24.2023 32.7025 24.6666 32.7025C25.1309 32.7025 25.5906 32.6111 26.0196 32.4334C26.4485 32.2557 26.8383 31.9953 27.1666 31.667C27.4949 31.3387 27.7553 30.9489 27.933 30.52C28.1107 30.091 28.2021 29.6313 28.2021 29.167C28.2021 28.7027 28.1107 28.243 27.933 27.814C27.7553 27.3851 27.4949 26.9953 27.1666 26.667" stroke="#F8F8FF" stroke-width="2" stroke-linecap="round" stroke-linejoin="round"/>
<path d="M23.8332 23.3332L27.9999 27.4999C28.6629 28.1629 29.5622 28.5354 30.4999 28.5354C31.4376 28.5354 32.3368 28.1629 32.9999 27.4999C33.6629 26.8368 34.0354 25.9375 34.0354 24.9999C34.0354 24.0622 33.6629 23.1629 32.9999 22.4999L26.5332 16.0332C25.5957 15.0969 24.3249 14.5709 22.9999 14.5709C21.6749 14.5709 20.4041 15.0969 19.4666 16.0332L17.9999 17.4999C17.3368 18.1629 16.4376 18.5354 15.4999 18.5354C14.5622 18.5354 13.6629 18.1629 12.9999 17.4999C12.3368 16.8368 11.9644 15.9375 11.9644 14.9999C11.9644 14.0622 12.3368 13.1629 12.9999 12.4999L17.6832 7.81653C19.2036 6.3001 21.1864 5.33412 23.3176 5.07148C25.4489 4.80885 27.6068 5.26458 29.4499 6.36653L30.2332 6.8332C30.9429 7.26151 31.7866 7.41006 32.5999 7.24986L35.4999 6.66653" stroke="#F8F8FF" stroke-width="4" stroke-linecap="round" stroke-linejoin="round"/>
<path d="M35.4999 5L37.1666 23.3333H33.8333" stroke="#F8F8FF" stroke-width="4" stroke-linecap="round" stroke-linejoin="round"/>
<path d="M5.49992 5L3.83325 23.3333L14.6666 34.1667C15.3296 34.8297 16.2289 35.2022 17.1666 35.2022C18.1043 35.2022 19.0035 34.8297 19.6666 34.1667C20.3296 33.5036 20.7021 32.6043 20.7021 31.6667C20.7021 30.729 20.3296 29.8297 19.6666 29.1667" stroke="#F8F8FF" stroke-width="4" stroke-linecap="round" stroke-linejoin="round"/>
<path d="M5.5 6.66699H18.8333" stroke="#F8F8FF" stroke-width="4" stroke-linecap="round" stroke-linejoin="round"/>
</svg>
