<svg width="42" height="46" viewBox="0 0 42 46" fill="none" xmlns="http://www.w3.org/2000/svg">
<path fill-rule="evenodd" clip-rule="evenodd" d="M20.0374 0.126585C24.1205 0.42893 26.0864 0.958033 28.6572 2.62093C30.472 3.75472 32.8916 6.09789 34.1014 7.76079C35.3112 9.42368 36.5966 12.5227 37.0503 14.5635C37.4283 16.8311 38.7137 19.4766 40.0748 21.2151C41.2846 22.7268 42.1919 24.5409 41.9651 25.1456C41.7383 25.7503 41.1334 26.2794 40.6041 26.2794C40.1504 26.2794 39.6211 27.1864 39.4699 28.3202C39.3943 29.5296 39.1674 32.0995 38.9406 34.2159C38.7894 36.2568 38.1845 38.4488 37.6552 38.9779C37.1259 39.507 35.538 39.9605 34.177 39.8849C32.8916 39.8849 30.9256 40.2628 29.867 40.6408C28.7329 41.0943 27.9767 42.0013 27.9767 42.9083C27.9767 43.7398 27.5987 44.4201 27.2206 44.4201C26.8425 44.4201 26.4645 43.4374 26.4645 42.1525C26.4645 40.414 26.9181 39.7337 28.3548 39.129C29.4134 38.7511 31.3793 38.3732 32.6647 38.3732C34.0258 38.3732 35.538 38.0708 36.0673 37.7685C36.5966 37.4661 37.0503 35.5009 37.0503 33.4601C37.1259 31.3437 37.1259 28.7737 37.1259 27.5644C37.0503 26.4306 37.2771 25.5235 37.5796 25.5235C37.9576 25.5235 38.7137 25.2212 39.3186 24.8433C40.226 24.2386 40.0748 23.7095 37.9576 21.4419C36.6722 19.9302 35.538 18.1161 35.538 17.3602C35.538 16.68 35.1599 14.7903 34.7819 13.203C34.3282 11.6913 32.8916 9.19692 31.5305 7.6852C30.2451 6.17348 27.9011 4.35941 26.4645 3.60355C25.0278 2.92327 22.457 2.09182 20.7935 1.78948C18.9032 1.48714 16.408 1.71389 13.9884 2.39417C11.8712 2.99886 9.07353 4.58617 7.56128 6.0223C6.12463 7.45844 4.23432 9.8772 3.47819 11.5401C2.57083 13.4297 2.04155 16.1508 2.04155 18.7208C2.04155 21.2151 2.57083 23.9362 3.40257 25.5235C4.1587 26.9597 5.82218 29.5296 7.03199 31.1925C8.61986 33.2333 9.4516 35.1986 9.52721 37.2394C9.67844 39.0534 10.2833 40.7919 11.1151 41.5478C11.8712 42.2281 13.3835 42.9839 14.5177 43.2107C16.0299 43.513 16.786 43.2863 17.3153 42.3792C17.6934 41.6234 17.8446 40.1117 17.6934 38.9779C17.5422 37.7685 17.0129 36.8615 16.6348 36.8615C16.1811 36.8615 15.8787 36.4835 15.8787 36.1056C15.8787 35.7277 17.2397 35.3497 18.9032 35.3497C20.5667 35.3497 21.9277 35.7277 21.9277 36.1056C21.9277 36.4835 21.3984 36.8615 20.7935 36.8615C19.9618 36.8615 19.6593 37.6929 19.6593 39.8849C19.6593 41.6234 19.13 43.3619 18.4495 44.0421C17.8446 44.6468 16.4836 45.1759 15.425 45.1759C14.442 45.1759 12.5517 44.6468 11.3419 44.0421C10.1321 43.4374 8.77108 42.2281 8.31741 41.3966C7.86373 40.5652 7.56128 38.8267 7.56128 37.6173C7.56128 36.1812 6.42709 33.6868 4.53677 30.9657C2.87329 28.6226 1.2098 25.4479 0.756128 24.0118C0.378064 22.5757 0 19.8546 0 17.9649C0 16.0753 0.756128 13.0518 1.58787 11.1622C2.41961 9.27251 4.00748 6.77817 5.14167 5.56879C6.27586 4.35941 8.92231 2.62093 10.9639 1.56272C14.2152 -0.0245872 15.5006 -0.17576 20.0374 0.126585ZM13.2322 10.4063C13.4591 10.4063 15.1226 11.9936 17.0129 14.0344C19.3569 16.5288 20.3398 17.2091 20.4154 16.302C20.4154 15.5462 20.8691 14.7147 21.3228 14.4124C21.8521 14.1856 23.7424 13.8077 25.4815 13.6565C27.2962 13.5809 28.7329 13.5809 28.7329 13.8077C28.7329 14.0344 27.6743 14.6391 26.3889 15.1682C24.0449 16.0753 24.0449 16.0753 24.4985 20.2325C24.8766 23.4071 24.7254 24.8433 23.818 26.1282C23.2131 27.0353 21.3984 28.0935 19.8105 28.547C17.9202 29.0005 16.0299 29.0005 13.9884 28.3958C12.1737 27.9423 9.60282 26.2794 4.1587 20.8372L9.67844 21.2907C12.6273 21.5175 15.1226 21.5931 15.1226 21.3663C15.1226 21.1395 14.6689 20.0813 14.064 18.9475C13.4591 17.7382 12.9298 15.9997 12.8542 14.9415C12.7786 13.8833 12.7029 12.4471 12.7786 11.6913C12.8542 11.011 13.0054 10.4063 13.2322 10.4063ZM19.8862 31.7972C21.0204 31.8728 22.0789 32.3263 22.1545 32.7042C22.2302 33.0821 20.7179 33.5357 18.6764 33.6112C16.7104 33.7624 15.0469 33.5357 14.9713 33.1577C14.8201 32.7798 15.425 32.2507 16.2567 32.0995C17.0885 31.8728 18.6764 31.7972 19.8862 31.7972Z" fill="white" fill-opacity="0.92"/>
</svg>
