<svg width="28" height="28" viewBox="0 0 28 28" fill="none" xmlns="http://www.w3.org/2000/svg">
<g clip-path="url(#clip0_1699_3636)">
<path fill-rule="evenodd" clip-rule="evenodd" d="M13.9956 0.00976562C10.1946 0.00976562 9.71799 0.0258767 8.22522 0.0939879C6.73555 0.161932 5.71817 0.398544 4.82795 0.744543C3.90761 1.10215 3.12711 1.58071 2.349 2.35876C1.57094 3.13687 1.09239 3.91737 0.734777 4.83771C0.388778 5.72793 0.152167 6.74533 0.0842222 8.23498C0.0161111 9.72777 0 10.2044 0 14.0054C0 17.8063 0.0161111 18.2829 0.0842222 19.7758C0.152167 21.2654 0.388778 22.2828 0.734777 23.173C1.09239 24.0934 1.57094 24.8739 2.349 25.6519C3.12711 26.43 3.90761 26.9085 4.82795 27.2662C5.71817 27.6122 6.73555 27.8488 8.22522 27.9168C9.71799 27.9848 10.1946 28.0009 13.9956 28.0009C17.7966 28.0009 18.2731 27.9848 19.7659 27.9168C21.2556 27.8488 22.2729 27.6122 23.1632 27.2662C24.0835 26.9085 24.864 26.43 25.6422 25.6519C26.4202 24.8739 26.8988 24.0934 27.2565 23.173C27.6024 22.2828 27.839 21.2654 27.9069 19.7758C27.975 18.2829 27.9911 17.8063 27.9911 14.0054C27.9911 10.2044 27.975 9.72777 27.9069 8.23498C27.839 6.74533 27.6024 5.72793 27.2565 4.83771C26.8988 3.91737 26.4202 3.13687 25.6422 2.35876C24.864 1.58071 24.0835 1.10215 23.1632 0.744543C22.2729 0.398544 21.2556 0.161932 19.7659 0.0939879C18.2731 0.0258767 17.7966 0.00976562 13.9956 0.00976562ZM9.33039 14.0054C9.33039 16.5819 11.4191 18.6706 13.9956 18.6706C16.5721 18.6706 18.6608 16.5819 18.6608 14.0054C18.6608 11.4288 16.5721 9.34016 13.9956 9.34016C11.4191 9.34016 9.33039 11.4288 9.33039 14.0054ZM6.80867 14.0054C6.80867 10.0361 10.0263 6.81843 13.9956 6.81843C17.9648 6.81843 21.1825 10.0361 21.1825 14.0054C21.1825 17.9746 17.9648 21.1922 13.9956 21.1922C10.0263 21.1922 6.80867 17.9746 6.80867 14.0054ZM21.4664 8.21394C22.394 8.21394 23.146 7.46204 23.146 6.53449C23.146 5.60693 22.394 4.85499 21.4664 4.85499C20.5389 4.85499 19.787 5.60693 19.787 6.53449C19.787 7.46204 20.5389 8.21394 21.4664 8.21394Z" fill="#F8F8FF"/>
</g>
<defs>
<clipPath id="clip0_1699_3636">
<rect width="28" height="28" fill="white"/>
</clipPath>
</defs>
</svg>
