<svg width="37" height="36" viewBox="0 0 37 36" fill="none" xmlns="http://www.w3.org/2000/svg">
<g clip-path="url(#clip0_1434_7720)">
<path d="M18.5133 0C8.70941 0 0.763672 7.94574 0.763672 17.7496C0.763672 27.5535 8.70941 35.4993 18.5133 35.4993C28.3172 35.4993 36.2629 27.5535 36.2629 17.7496C36.2629 7.94574 28.3172 0 18.5133 0ZM13.549 25.1754H10.0892V14.1026H13.549V25.1754ZM11.7255 12.7159H11.6977C10.4428 12.7159 9.63156 11.8701 9.63156 10.7954C9.63156 9.6999 10.4705 8.87482 11.7463 8.87482C13.022 8.87482 13.8055 9.6999 13.8332 10.7954C13.8402 11.8631 13.0289 12.7159 11.7255 12.7159ZM27.3881 25.1754H23.4638V19.4483C23.4638 17.9507 22.8536 16.9246 21.5016 16.9246C20.4685 16.9246 19.8931 17.6179 19.6296 18.2835C19.5325 18.5192 19.5464 18.8521 19.5464 19.1918V25.1754H15.6567C15.6567 25.1754 15.7053 15.0248 15.6567 14.1026H19.5464V15.8429C19.7752 15.0803 21.0163 13.9986 22.9993 13.9986C25.4606 13.9986 27.3881 15.5933 27.3881 19.0185V25.1754Z" fill="#0797A0"/>
</g>
<defs>
<clipPath id="clip0_1434_7720">
<rect width="35.4993" height="35.4993" fill="white" transform="translate(0.763672)"/>
</clipPath>
</defs>
</svg>
