<svg width="41" height="40" viewBox="0 0 41 40" fill="none" xmlns="http://www.w3.org/2000/svg">
<path d="M27.1666 35V31.6667C27.1666 29.8986 26.4642 28.2029 25.214 26.9526C23.9637 25.7024 22.268 25 20.4999 25H10.4999C8.73181 25 7.03612 25.7024 5.78587 26.9526C4.53563 28.2029 3.83325 29.8986 3.83325 31.6667V35" stroke="#F8F8FF" stroke-width="4" stroke-linecap="round" stroke-linejoin="round"/>
<path d="M27.1667 5.21289C28.5963 5.58351 29.8624 6.41833 30.7662 7.58633C31.67 8.75433 32.1604 10.1894 32.1604 11.6662C32.1604 13.1431 31.67 14.5781 30.7662 15.7461C29.8624 16.9141 28.5963 17.7489 27.1667 18.1196" stroke="#F8F8FF" stroke-width="4" stroke-linecap="round" stroke-linejoin="round"/>
<path d="M37.1667 35.0001V31.6668C37.1656 30.1897 36.674 28.7548 35.769 27.5873C34.864 26.4199 33.597 25.5861 32.1667 25.2168" stroke="#F8F8FF" stroke-width="4" stroke-linecap="round" stroke-linejoin="round"/>
<path d="M15.4999 18.3333C19.1818 18.3333 22.1666 15.3486 22.1666 11.6667C22.1666 7.98477 19.1818 5 15.4999 5C11.818 5 8.83325 7.98477 8.83325 11.6667C8.83325 15.3486 11.818 18.3333 15.4999 18.3333Z" stroke="#F8F8FF" stroke-width="4" stroke-linecap="round" stroke-linejoin="round"/>
</svg>
