<svg width="41" height="40" viewBox="0 0 41 40" fill="none" xmlns="http://www.w3.org/2000/svg">
<path d="M32.1667 5H8.83333C6.99238 5 5.5 6.49238 5.5 8.33333V31.6667C5.5 33.5076 6.99238 35 8.83333 35H32.1667C34.0076 35 35.5 33.5076 35.5 31.6667V8.33333C35.5 6.49238 34.0076 5 32.1667 5Z" stroke="#F8F8FF" stroke-width="4" stroke-linecap="round" stroke-linejoin="round"/>
<path d="M18.8333 15H25.4999C26.384 15 27.2318 14.6488 27.8569 14.0237C28.4821 13.3986 28.8333 12.5507 28.8333 11.6667V5" stroke="#F8F8FF" stroke-width="4" stroke-linecap="round" stroke-linejoin="round"/>
<path d="M15.5001 18.3337C17.341 18.3337 18.8334 16.8413 18.8334 15.0003C18.8334 13.1594 17.341 11.667 15.5001 11.667C13.6591 11.667 12.1667 13.1594 12.1667 15.0003C12.1667 16.8413 13.6591 18.3337 15.5001 18.3337Z" stroke="#F8F8FF" stroke-width="4" stroke-linecap="round" stroke-linejoin="round"/>
<path d="M12.1667 35V28.3333C12.1667 27.4493 12.5179 26.6014 13.1431 25.9763C13.7682 25.3512 14.616 25 15.5001 25H22.1667" stroke="#F8F8FF" stroke-width="4" stroke-linecap="round" stroke-linejoin="round"/>
<path d="M25.5001 28.3337C27.341 28.3337 28.8334 26.8413 28.8334 25.0003C28.8334 23.1594 27.341 21.667 25.5001 21.667C23.6591 21.667 22.1667 23.1594 22.1667 25.0003C22.1667 26.8413 23.6591 28.3337 25.5001 28.3337Z" stroke="#F8F8FF" stroke-width="4" stroke-linecap="round" stroke-linejoin="round"/>
</svg>
